HIERARCHY
ROOT root
{
	OFFSET	0	13.1	24.9
	CHANNELS 6  Xposition Yposition Zposition Xrotation Yrotation Zrotation
	JOINT spine_1
	{
		OFFSET	0	9.99999	0
		CHANNELS 3  Xrotation Yrotation Zrotation
		JOINT spine_2
		{
			OFFSET	0	112	-10
			CHANNELS 3  Xrotation Yrotation Zrotation
			JOINT spine_3
			{
				OFFSET	0	206.5	19.3
				CHANNELS 3  Xrotation Yrotation Zrotation
				JOINT spine_4
				{
					OFFSET	0	110.4	14.6
					CHANNELS 3  Xrotation Yrotation Zrotation
					JOINT neck_1
					{
						OFFSET	0	71.8	-50.3
						CHANNELS 3  Xrotation Yrotation Zrotation
						JOINT neck_2
						{
							OFFSET	0	86.2	-25.8
							CHANNELS 3  Xrotation Yrotation Zrotation
							JOINT head_ee
							{
								OFFSET	0	179.8	-8.7
								CHANNELS 3  Xrotation Yrotation Zrotation
								End Site
								{
									OFFSET	1	0	0
								}
							}
						}
					}
					JOINT left_clavicle
					{
						OFFSET	-43.2	22.4	-70.8
						CHANNELS 3  Xrotation Yrotation Zrotation
						JOINT left_shoulder
						{
							OFFSET	-93.9	-5.79999	48.7
							CHANNELS 3  Xrotation Yrotation Zrotation
							JOINT left_elbow
							{
								OFFSET	-291.4	-30.8	15.2
								CHANNELS 3  Xrotation Yrotation Zrotation
								JOINT left_lowarm_twist
								{
									OFFSET	-110.7	-3.89999	13.6
									CHANNELS 3  Xrotation Yrotation Zrotation
									JOINT left_hand
									{
										OFFSET	-110.7	-3.89999	13.6
										CHANNELS 3  Xrotation Yrotation Zrotation
										JOINT left_ee
										{
											OFFSET	-80.8	-5.10001	12.1
											CHANNELS 3  Xrotation Yrotation Zrotation
											End Site
											{
												OFFSET	1	0	0
											}
										}
									}
								}
							}
						}
					}
					JOINT right_clavicle
					{
						OFFSET	43.2	22.4	-70.8
						CHANNELS 3  Xrotation Yrotation Zrotation
						JOINT right_shoulder
						{
							OFFSET	93.9	-5.79999	48.7
							CHANNELS 3  Xrotation Yrotation Zrotation
							JOINT right_elbow
							{
								OFFSET	291.4	-30.8	15.2
								CHANNELS 3  Xrotation Yrotation Zrotation
								JOINT right_lowarm_twist
								{
									OFFSET	110.7	-3.89999	13.6
									CHANNELS 3  Xrotation Yrotation Zrotation
									JOINT right_hand
									{
										OFFSET	110.7	-3.89999	13.6
										CHANNELS 3  Xrotation Yrotation Zrotation
										JOINT right_ee
										{
											OFFSET	80.8	-5.10001	12.1
											CHANNELS 3  Xrotation Yrotation Zrotation
											End Site
											{
												OFFSET	1	0	0
											}
										}
									}
								}
							}
						}
					}
				}
			}
		}
	}
	JOINT left_hip
	{
		OFFSET	-82.8	-127.5	0.300001
		CHANNELS 3  Xrotation Yrotation Zrotation
		JOINT left_knee
		{
			OFFSET	-28.2	-396.7	2.2
			CHANNELS 3  Xrotation Yrotation Zrotation
			JOINT left_ankle
			{
				OFFSET	-11.7	-411.3	35.4
				CHANNELS 3  Xrotation Yrotation Zrotation
				JOINT left_toes
				{
					OFFSET	0	-60	-88.6
					CHANNELS 3  Xrotation Yrotation Zrotation
					JOINT left_foot_ee
					{
						OFFSET	-22.5	-16.5	-42.2
						CHANNELS 3  Xrotation Yrotation Zrotation
						End Site
						{
							OFFSET	1	0	0
						}
					}
				}
			}
		}
	}
	JOINT right_hip
	{
		OFFSET	82.8	-127.5	0.300001
		CHANNELS 3  Xrotation Yrotation Zrotation
		JOINT right_knee
		{
			OFFSET	28.2	-396.7	2.2
			CHANNELS 3  Xrotation Yrotation Zrotation
			JOINT right_ankle
			{
				OFFSET	11.7	-411.3	35.4
				CHANNELS 3  Xrotation Yrotation Zrotation
				JOINT right_toes
				{
					OFFSET	0	-60	-88.6
					CHANNELS 3  Xrotation Yrotation Zrotation
					JOINT right_foot_ee
					{
						OFFSET	22.5	-16.5	-42.2
						CHANNELS 3  Xrotation Yrotation Zrotation
						End Site
						{
							OFFSET	1	0	0
						}
					}
				}
			}
		}
	}
}
MOTION
Frames: 5
Frame Time: 0.02
2447.45046706 784.672 -1490.31996151 169.10197729 77.9731977168 -175.548129167 0.528196 0.526534 3.55167 0.535163 0.299613 3.57793 0.556514 -0.424817 3.56525 0.538808 0.143204 3.58758 -13.8485 14.3084 -18.5578 -13.9847 38.5446 -13.1942 -0.0 0.0 -0.0 -5.23936 23.5299 -4.47746 -15.6283 -36.4271 58.4932 0.272765 -7.69537 0.018345 -20.7891 -1.17612 2.36926 3.0108 12.5876 25.0536 -0.0 0.0 -0.0 10.6987 -5.67489 -20.6585 -22.2555 45.3523 -53.2636 1.55774 37.6533 -0.531136 -58.3648 5.08012 -5.04737 -6.70352 -24.109 30.3185 0.0 0.0 0.0 4.80305 -6.9433 3.1251 -29.954 0.0458255 4.5446 26.9423 -17.7283 -3.89244 -17.8005 0.0 0.0 -0.0 0.0 -0.0 5.83966 10.8191 -3.51793 -3.8933 -0.140605 -0.580845 22.4795 -13.0878 3.05101 -26.2862 0.0 0.0 0.0 0.0 0.0 
2443.89782793 784.27 -1493.44049953 168.441512163 77.8193397722 -174.57250881 0.410713 0.459291 3.46228 0.417349 0.238184 3.48445 0.434479 -0.473688 3.46034 0.41778 0.0784079 3.4917 -14.2437 13.9031 -17.9037 -14.4568 37.2931 -12.534 -0.0 0.0 -0.0 -4.64132 23.403 -3.67783 -16.0778 -36.3668 58.075 0.248599 -7.02072 0.0152501 -21.0364 -1.19515 2.39459 3.19738 13.0992 26.5342 -0.0 0.0 -0.0 10.5694 -6.34984 -20.336 -21.7517 44.6735 -53.5424 1.66229 39.4666 -0.596314 -58.5128 5.0984 -5.05248 -6.73889 -23.0618 31.5345 0.0 0.0 0.0 5.26543 -7.85 1.64032 -29.5048 0.0627132 4.47774 26.7971 -19.6836 -3.93727 -17.3034 0.0 0.0 -0.0 0.0 -0.0 6.77266 10.7125 -3.97945 -6.74003 -0.218255 -1.01078 23.9609 -14.5432 3.23912 -25.9566 0.0 0.0 0.0 0.0 0.0 
2429.25887783 787.889 -1497.45821275 167.329253489 80.1593426955 -173.412441581 0.297769 0.530482 3.38816 0.3041 0.313938 3.41501 0.32566 -0.391743 3.40697 0.309496 0.150915 3.42607 -19.0813 16.0906 -17.4842 -20.727 40.0075 -9.15651 -0.0 0.0 -0.0 -4.46332 23.1741 -3.48602 -17.9477 -36.2616 58.4795 0.271461 -7.65903 0.0181709 -20.5432 -1.15731 2.34399 3.34306 13.4629 27.6875 -0.0 0.0 -0.0 10.6705 -4.35343 -20.7252 -17.843 42.7775 -54.5788 1.58472 38.1299 -0.547704 -59.2443 5.18893 -5.07703 -7.66831 -27.7689 33.2908 0.0 0.0 0.0 7.72398 -8.25987 -0.211098 -24.3339 0.219074 3.69984 29.0554 -12.5743 -3.99864 -18.1673 0.0 0.0 -0.0 0.0 -0.0 6.71773 11.6 -4.35335 -9.74674 -0.276964 -1.46838 24.554 -14.845 3.31213 -27.1176 0.0 0.0 0.0 0.0 0.0 
2412.52506342 786.46 -1527.2612533 160.750970093 86.2758470522 -165.881639371 0.275561 0.0557287 3.23751 0.281379 -0.150286 3.2345 0.274844 -0.812605 3.13447 0.261267 -0.307647 3.22336 -19.0449 15.9883 -16.6638 -20.6852 39.3934 -8.44576 -0.0 0.0 -0.0 -3.79963 21.5341 -2.92541 -20.3938 -36.637 58.5985 0.485784 -13.5308 0.057629 -18.8205 -1.02863 2.16478 4.24431 15.3935 34.9572 -0.0 0.0 -0.0 10.2136 -8.6236 -19.411 -16.2969 41.2269 -56.8934 2.02556 45.0922 -0.840998 -63.4417 5.71362 -5.19537 -8.18424 -30.0325 34.2875 0.0 0.0 0.0 8.52995 -5.87554 -1.03781 -14.1532 0.31946 2.14299 31.0731 -0.693958 -4.02915 -18.6701 0.0 0.0 -0.0 0.0 -0.0 8.14056 13.2788 -5.57682 -10.5429 -0.288481 -1.59 23.2151 -18.3384 3.18497 -26.6455 0.0 0.0 0.0 0.0 0.0 
2391.54621582 788.698 -1556.40891977 -113.576554334 88.93247852 107.992192883 0.240295 0.19734 3.017 0.245358 0.00505002 3.02343 0.247579 -0.618282 2.9596 0.235385 -0.143331 3.02004 -17.8125 15.9949 -15.9895 -19.2401 39.3447 -8.2843 -0.0 0.0 -0.0 -2.94652 18.4306 -2.306 -19.4546 -40.047 56.987 0.658349 -18.0626 0.104642 -20.3992 -1.14635 2.32917 4.42752 16.4463 36.6587 -0.0 0.0 -0.0 10.0511 -10.2123 -18.9299 -20.1498 39.8676 -56.6198 1.81021 41.8794 -0.692741 -64.4078 5.83545 -5.21712 -7.47595 -29.3116 30.3657 0.0 0.0 0.0 9.38878 -6.35159 -0.251372 -6.65681 0.216289 0.998157 15.5159 4.03279 -2.16402 -22.504 0.0 0.0 -0.0 0.0 -0.0 8.8708 14.6281 -5.12483 -11.8479 -0.3037 -1.78965 24.5991 -21.6258 3.39833 -25.6628 0.0 0.0 0.0 0.0 0.0 
